<?xml version="1.0" encoding="UTF-8"?>
<svg width="191px" height="138px" viewBox="0 0 191 138" version="1.1" xmlns="http://www.w3.org/2000/svg" xmlns:xlink="http://www.w3.org/1999/xlink">
    <!-- Generator: sketchtool 42 (36781) - http://www.bohemiancoding.com/sketch -->
    <title>188148E5-8C69-4871-9DE9-C6175D96A774</title>
    <desc>Created with sketchtool.</desc>
    <defs></defs>
    <g id="Page-1" stroke="none" stroke-width="1" fill="none" fill-rule="evenodd">
        <g id="Exemple-home-blog" transform="translate(-625.000000, -54.000000)">
            <g id="Group-2" transform="translate(625.000000, 56.000000)">
                <g id="header-logo-francelegaltech">
                    <g id="Group">
                        <g id="Page-1">
                            <g id="1-1-Home">
                                <g id="Group">
                                    <path d="M0.777287536,102.947143 L0.777287536,84.8946283 L12.7502612,84.8946283 L12.7502612,88.0956927 L4.3009399,88.0956927 L4.3009399,92.9221039 L11.3482446,92.9221039 L11.3482446,96.1107611 L4.3009399,96.1107611 L4.3009399,102.947143 L0.777287536,102.947143 Z M20.8178757,90.3289935 C20.9419485,90.3289935 21.0287983,90.3331292 21.0784274,90.3414007 L21.0784274,93.9891254 C20.7475664,93.9643108 20.4539316,93.9519037 20.1975143,93.9519037 C19.2049312,93.9519037 18.4294873,94.2538099 17.8711593,94.8576312 C17.3128313,95.4614526 17.0336715,96.2389644 17.0336715,97.1901898 L17.0336715,102.947143 L13.7085348,102.947143 L13.7085348,90.5399164 L17.0336715,90.5399164 L17.0336715,92.3637787 L17.0708932,92.3637787 C17.5423702,91.7103281 18.1006898,91.2078405 18.7458688,90.8563006 C19.3910478,90.5047608 20.0817099,90.3289935 20.8178757,90.3289935 Z M30.6100946,90.5399164 L33.9352313,90.5399164 L33.9352313,102.947143 L30.7713885,102.947143 L30.7713885,101.445869 L30.7093524,101.445869 C29.8242991,102.587339 28.5877246,103.158066 26.9995916,103.158066 C26.1476245,103.158066 25.3556378,103.005045 24.6236077,102.698998 C23.8915777,102.392952 23.2629512,101.964907 22.7377093,101.414851 C22.2124674,100.864794 21.8009652,100.190675 21.5031902,99.3924726 C21.2054153,98.5942703 21.0565301,97.7237053 21.0565301,96.7807514 C21.0565301,95.8543405 21.2054153,94.989979 21.5031902,94.187641 C21.8009652,93.385303 22.2083317,92.7029124 22.7253021,92.1404486 C23.2422724,91.5779849 23.8626276,91.1354649 24.5863861,90.8128754 C25.3101446,90.4902858 26.0814528,90.3289935 26.9003338,90.3289935 C28.414023,90.3289935 29.6340548,90.8666346 30.5604657,91.941933 L30.6100946,91.941933 L30.6100946,90.5399164 Z M27.6075457,100.180331 C28.492599,100.180331 29.2370252,99.8660182 29.8408465,99.2373822 C30.4446679,98.6087463 30.7465741,97.7940132 30.7465741,96.7931586 C30.7465741,95.8005755 30.4508715,94.9734353 29.8594574,94.3117133 C29.2680433,93.6499912 28.5215493,93.3191351 27.619953,93.3191351 C26.7100851,93.3191351 25.951184,93.6375841 25.3432269,94.2744916 C24.7352697,94.9113991 24.4312957,95.7509463 24.4312957,96.7931586 C24.4312957,97.7940132 24.7269983,98.6087463 25.3184124,99.2373822 C25.9098265,99.8660182 26.6728633,100.180331 27.6075457,100.180331 Z M43.3428262,90.3289935 C44.0293629,90.3289935 44.6393787,90.4261825 45.1728922,90.6205633 C45.7064056,90.8149442 46.1778755,91.1147825 46.587316,91.5200873 C46.9967565,91.925392 47.3090019,92.4713045 47.5240616,93.1578412 C47.7391213,93.8443778 47.8466495,94.6549752 47.8466495,95.5896576 L47.8466495,102.95955 L44.5215128,102.95955 L44.5215128,96.4209418 C44.5215128,95.2794712 44.3271348,94.4771453 43.9383731,94.0139398 C43.5496114,93.5507344 42.9499348,93.3191351 42.1393252,93.3191351 C41.2790866,93.3191351 40.5946281,93.6127699 40.0859292,94.2000482 C39.5772304,94.7873266 39.3228848,95.6227381 39.3228848,96.706308 L39.3228848,102.947143 L35.9977481,102.947143 L35.9977481,90.5399164 L39.3228848,90.5399164 L39.3228848,92.1404486 L39.3601065,92.1404486 C39.8646696,91.5531703 40.4622783,91.1044467 41.1529507,90.7942645 C41.8436231,90.4840823 42.5735743,90.3289935 43.3428262,90.3289935 Z M55.5296399,103.158066 C54.3137256,103.158066 53.2219006,102.891313 52.2541321,102.3578 C51.2863636,101.824286 50.5274624,101.069521 49.977406,100.093481 C49.4273495,99.1174408 49.1523254,98.0049373 49.1523254,96.7559369 C49.1523254,95.498665 49.4294174,94.3820258 49.9836096,93.4059857 C50.5378018,92.4299457 51.3111779,91.6731124 52.303761,91.1354632 C53.2963441,90.5978141 54.4253904,90.3289935 55.6909338,90.3289935 C56.7083315,90.3289935 57.6884926,90.5337107 58.6314466,90.9431512 C59.5744005,91.3525918 60.3519123,91.9419291 60.9640052,92.711181 L58.7182971,94.6467084 C57.9573168,93.7616551 56.9936985,93.3191351 55.8274133,93.3191351 C55.3393933,93.3191351 54.8886019,93.403917 54.4750256,93.5734833 C54.0614493,93.7430496 53.7119826,93.9767167 53.426615,94.2744916 C53.1412473,94.5722665 52.9199874,94.9320725 52.7628284,95.3539203 C52.6056694,95.7757681 52.5270911,96.2348309 52.5270911,96.7311225 C52.5270911,97.7485201 52.8352008,98.5756603 53.4514294,99.2125678 C54.0676581,99.8494753 54.8679162,100.167924 55.8522278,100.167924 C56.4643207,100.167924 57.0164368,100.050057 57.5085925,99.8143183 C58.0007483,99.5785798 58.4081149,99.2787415 58.7307044,98.9147943 L61.0136341,100.924765 C60.4428988,101.586487 59.6839977,102.124128 58.736908,102.537705 C57.7898183,102.951281 56.7207396,103.158066 55.5296399,103.158066 Z M73.6967368,96.6318646 C73.6967368,97.219143 73.6677869,97.6161703 73.6098862,97.8229584 L64.9124204,97.8229584 C65.110937,98.5591242 65.4893536,99.1381223 66.0476816,99.5599701 C66.6060096,99.9818179 67.2821967,100.196874 68.0762631,100.205146 C69.2756344,100.213417 70.2640669,99.7460832 71.0415903,98.8031293 L73.2004477,100.8131 C72.637984,101.524451 71.9018292,102.09311 70.9919614,102.519094 C70.0820936,102.945077 69.0316255,103.158066 67.8405258,103.158066 C66.6328831,103.158066 65.5451937,102.895449 64.5774252,102.370207 C63.6096567,101.844965 62.8466199,101.0902 62.2882919,100.105888 C61.7299639,99.1215765 61.4508041,97.9966659 61.4508041,96.7311225 C61.4508041,95.8047116 61.6079608,94.9424179 61.9222787,94.1442157 C62.2365967,93.3460135 62.6646418,92.6677585 63.2064267,92.1094305 C63.7482116,91.5511025 64.3995845,91.1147861 65.1605649,90.8004681 C65.9215453,90.4861501 66.7362783,90.3289935 67.6047885,90.3289935 C68.8041598,90.3289935 69.8670349,90.5998819 70.7934458,91.1416669 C71.7198567,91.6834518 72.4353329,92.4320137 72.939896,93.3873749 C73.444459,94.3427361 73.6967368,95.4242219 73.6967368,96.6318646 Z M67.7164536,93.257099 C67.0299169,93.257099 66.4405796,93.4432055 65.9484238,93.8154242 C65.456268,94.1876429 65.1150727,94.725284 64.9248276,95.4283637 L70.3964145,95.4283637 C70.2227125,94.7500985 69.9083992,94.218661 69.4534653,93.834035 C68.9985314,93.4494091 68.4195333,93.257099 67.7164536,93.257099 Z M80.9359842,102.947143 L80.9359842,84.8946283 L84.5092654,84.8946283 L84.5092654,99.7584857 L92.5367411,99.7584857 L92.5367411,102.947143 L80.9359842,102.947143 Z M105.381138,96.6318646 C105.381138,97.219143 105.352188,97.6161703 105.294287,97.8229584 L96.5968213,97.8229584 C96.7953379,98.5591242 97.1737545,99.1381223 97.7320825,99.5599701 C98.2904105,99.9818179 98.9665976,100.196874 99.7606641,100.205146 C100.960035,100.213417 101.948468,99.7460832 102.725991,98.8031293 L104.884849,100.8131 C104.322385,101.524451 103.58623,102.09311 102.676362,102.519094 C101.766495,102.945077 100.716026,103.158066 99.5249268,103.158066 C98.317284,103.158066 97.2295947,102.895449 96.2618262,102.370207 C95.2940577,101.844965 94.5310209,101.0902 93.9726929,100.105888 C93.4143649,99.1215765 93.1352051,97.9966659 93.1352051,96.7311225 C93.1352051,95.8047116 93.2923617,94.9424179 93.6066797,94.1442157 C93.9209977,93.3460135 94.3490427,92.6677585 94.8908276,92.1094305 C95.4326126,91.5511025 96.0839855,91.1147861 96.8449658,90.8004681 C97.6059462,90.4861501 98.4206793,90.3289935 99.2891895,90.3289935 C100.488561,90.3289935 101.551436,90.5998819 102.477847,91.1416669 C103.404258,91.6834518 104.119734,92.4320137 104.624297,93.3873749 C105.12886,94.3427361 105.381138,95.4242219 105.381138,96.6318646 Z M99.4008545,93.257099 C98.7143179,93.257099 98.1249805,93.4432055 97.6328247,93.8154242 C97.1406689,94.1876429 96.7994736,94.725284 96.6092285,95.4283637 L102.080815,95.4283637 C101.907113,94.7500985 101.5928,94.218661 101.137866,93.834035 C100.682932,93.4494091 100.103934,93.257099 99.4008545,93.257099 Z M115.632424,90.5399164 L118.957561,90.5399164 L118.957561,101.520312 C118.957561,102.314378 118.887254,103.042262 118.746638,103.703984 C118.606022,104.365706 118.374423,104.975722 118.051833,105.53405 C117.729244,106.092378 117.319809,106.565915 116.823518,106.954677 C116.327226,107.343439 115.713075,107.645345 114.981045,107.860405 C114.249015,108.075464 113.415671,108.182993 112.480989,108.182993 C110.545451,108.182993 108.849814,107.765287 107.394026,106.929863 L108.163274,104.12583 C108.841539,104.498048 109.499115,104.783412 110.136023,104.981928 C110.77293,105.180445 111.459456,105.279702 112.195622,105.279702 C113.312278,105.279702 114.17664,105.019152 114.788733,104.498046 C115.400826,103.97694 115.706867,103.319364 115.706867,102.525297 L115.706867,101.272167 L115.644831,101.272167 C114.726692,102.239936 113.523203,102.723813 112.034328,102.723813 C110.901129,102.723813 109.885815,102.467399 108.988354,101.954565 C108.090894,101.44173 107.387825,100.72005 106.879126,99.7895038 C106.370427,98.8589572 106.116081,97.8022856 106.116081,96.6194574 C106.116081,95.4200862 106.362155,94.3406683 106.854311,93.3811713 C107.346467,92.4216743 108.030926,91.6731124 108.907707,91.1354632 C109.784489,90.5978141 110.768786,90.3289935 111.860627,90.3289935 C112.571978,90.3289935 113.248165,90.4551324 113.889209,90.7074139 C114.530252,90.9596955 115.090639,91.3298407 115.570388,91.8178607 L115.632424,91.8178607 L115.632424,90.5399164 Z M112.642282,99.7088568 C113.560422,99.7088568 114.313119,99.4069507 114.900398,98.8031293 C115.487676,98.1993079 115.781311,97.4300676 115.781311,96.4953851 C115.781311,95.5607027 115.481472,94.8038695 114.881787,94.2248627 C114.282101,93.6458559 113.535607,93.3563568 112.642282,93.3563568 C111.715872,93.3563568 110.959038,93.6499916 110.37176,94.2372699 C109.784482,94.8245482 109.490847,95.5855172 109.490847,96.5201996 C109.490847,96.9089613 109.542543,97.2708351 109.645937,97.6058319 C109.749331,97.9408287 109.896149,98.2365313 110.086394,98.4929486 C110.276639,98.7493659 110.502035,98.9685581 110.762588,99.1505316 C111.023141,99.3325052 111.31264,99.4710512 111.631093,99.5661737 C111.949547,99.6612963 112.286607,99.7088568 112.642282,99.7088568 Z M129.854023,90.5399164 L133.17916,90.5399164 L133.17916,102.947143 L130.015317,102.947143 L130.015317,101.445869 L129.953281,101.445869 C129.068227,102.587339 127.831653,103.158066 126.24352,103.158066 C125.391553,103.158066 124.599566,103.005045 123.867536,102.698998 C123.135506,102.392952 122.506879,101.964907 121.981638,101.414851 C121.456396,100.864794 121.044893,100.190675 120.747119,99.3924726 C120.449344,98.5942703 120.300458,97.7237053 120.300458,96.7807514 C120.300458,95.8543405 120.449344,94.989979 120.747119,94.187641 C121.044893,93.385303 121.45226,92.7029124 121.96923,92.1404486 C122.486201,91.5779849 123.106556,91.1354649 123.830314,90.8128754 C124.554073,90.4902858 125.325381,90.3289935 126.144262,90.3289935 C127.657951,90.3289935 128.877983,90.8666346 129.804394,91.941933 L129.854023,91.941933 L129.854023,90.5399164 Z M126.851474,100.180331 C127.736527,100.180331 128.480953,99.8660182 129.084775,99.2373822 C129.688596,98.6087463 129.990502,97.7940132 129.990502,96.7931586 C129.990502,95.8005755 129.6948,94.9734353 129.103386,94.3117133 C128.511972,93.6499912 127.765478,93.3191351 126.863881,93.3191351 C125.954013,93.3191351 125.195112,93.6375841 124.587155,94.2744916 C123.979198,94.9113991 123.675224,95.7509463 123.675224,96.7931586 C123.675224,97.7940132 123.970927,98.6087463 124.562341,99.2373822 C125.153755,99.8660182 125.916792,100.180331 126.851474,100.180331 Z M135.390563,102.947143 L135.390563,84.2370452 L138.7157,84.2370452 L138.7157,102.947143 L135.390563,102.947143 Z M145.05871,102.947143 L145.05871,88.0956927 L140.083412,88.0956927 L140.083412,84.8946283 L153.619696,84.8946283 L153.619696,88.0956927 L148.619584,88.0956927 L148.619584,102.947143 L145.05871,102.947143 Z M164.181163,96.6318646 C164.181163,97.219143 164.152213,97.6161703 164.094313,97.8229584 L155.396847,97.8229584 C155.595363,98.5591242 155.97378,99.1381223 156.532108,99.5599701 C157.090436,99.9818179 157.766623,100.196874 158.560689,100.205146 C159.760061,100.213417 160.748493,99.7460832 161.526017,98.8031293 L163.684874,100.8131 C163.12241,101.524451 162.386256,102.09311 161.476388,102.519094 C160.56652,102.945077 159.516052,103.158066 158.324952,103.158066 C157.117309,103.158066 156.02962,102.895449 155.061852,102.370207 C154.094083,101.844965 153.331046,101.0902 152.772718,100.105888 C152.21439,99.1215765 151.93523,97.9966659 151.93523,96.7311225 C151.93523,95.8047116 152.092387,94.9424179 152.406705,94.1442157 C152.721023,93.3460135 153.149068,92.6677585 153.690853,92.1094305 C154.232638,91.5511025 154.884011,91.1147861 155.644991,90.8004681 C156.405972,90.4861501 157.220705,90.3289935 158.089215,90.3289935 C159.288586,90.3289935 160.351461,90.5998819 161.277872,91.1416669 C162.204283,91.6834518 162.919759,92.4320137 163.424322,93.3873749 C163.928885,94.3427361 164.181163,95.4242219 164.181163,96.6318646 Z M158.20088,93.257099 C157.514343,93.257099 156.925006,93.4432055 156.43285,93.8154242 C155.940694,94.1876429 155.599499,94.725284 155.409254,95.4283637 L160.880841,95.4283637 C160.707139,94.7500985 160.392826,94.218661 159.937892,93.834035 C159.482958,93.4494091 158.90396,93.257099 158.20088,93.257099 Z M171.330643,103.158066 C170.114728,103.158066 169.022903,102.891313 168.055135,102.3578 C167.087366,101.824286 166.328465,101.069521 165.778409,100.093481 C165.228352,99.1174408 164.953328,98.0049373 164.953328,96.7559369 C164.953328,95.498665 165.23042,94.3820258 165.784612,93.4059857 C166.338805,92.4299457 167.112181,91.6731124 168.104764,91.1354632 C169.097347,90.5978141 170.226393,90.3289935 171.491937,90.3289935 C172.509334,90.3289935 173.489495,90.5337107 174.432449,90.9431512 C175.375403,91.3525918 176.152915,91.9419291 176.765008,92.711181 L174.5193,94.6467084 C173.75832,93.7616551 172.794701,93.3191351 171.628416,93.3191351 C171.140396,93.3191351 170.689605,93.403917 170.276029,93.5734833 C169.862452,93.7430496 169.512986,93.9767167 169.227618,94.2744916 C168.94225,94.5722665 168.72099,94.9320725 168.563831,95.3539203 C168.406672,95.7757681 168.328094,96.2348309 168.328094,96.7311225 C168.328094,97.7485201 168.636204,98.5756603 169.252432,99.2125678 C169.868661,99.8494753 170.668919,100.167924 171.653231,100.167924 C172.265324,100.167924 172.81744,100.050057 173.309595,99.8143183 C173.801751,99.5785798 174.209118,99.2787415 174.531707,98.9147943 L176.814637,100.924765 C176.243902,101.586487 175.485001,102.124128 174.537911,102.537705 C173.590821,102.951281 172.521742,103.158066 171.330643,103.158066 Z M185.341319,90.3289935 C186.036127,90.3289935 186.654414,90.4220468 187.196199,90.6081561 C187.737984,90.7942654 188.215658,91.0858324 188.629234,91.4828656 C189.04281,91.8798988 189.361259,92.4154721 189.58459,93.0896014 C189.807921,93.7637308 189.919585,94.5639889 189.919585,95.4903998 L189.919585,102.95955 L186.582041,102.95955 L186.582041,96.3340912 C186.582041,95.2339783 186.385596,94.4564665 185.992698,94.0015326 C185.599801,93.5465987 184.989785,93.3191351 184.162632,93.3191351 C183.252764,93.3191351 182.541424,93.6024306 182.028589,94.1690302 C181.515755,94.7356297 181.259341,95.5648377 181.259341,96.6566791 L181.259341,102.947143 L177.934204,102.947143 L177.934204,84.2370452 L181.259341,84.2370452 L181.259341,92.0411908 L181.30897,92.0411908 C181.813533,91.478727 182.411142,91.0527499 183.101814,90.7632464 C183.792487,90.473743 184.538981,90.3289935 185.341319,90.3289935 Z" id="France-LegalTech" fill="#1079F6" fill-rule="nonzero"></path>
                                    <g id="Group-10" transform="translate(60.000000, 0.000000)">
                                        <path d="M68.6345382,34.3285714 C68.6345382,53.2874128 53.3516815,68.6571429 34.5,68.6571429 C15.6483185,68.6571429 0.365461847,53.2874128 0.365461847,34.3285714 C0.365461847,15.36973 15.6483185,0 34.5,0 C53.3516815,0 68.6345382,15.36973 68.6345382,34.3285714" id="Fill-1" fill="#FFFFFF" fill-rule="nonzero"></path>
                                        <path d="M68.6345382,34.3285714 C68.6345382,53.2874128 53.3516815,68.6571429 34.5,68.6571429 C15.6483185,68.6571429 0.365461847,53.2874128 0.365461847,34.3285714 C0.365461847,15.36973 15.6483185,0 34.5,0 C53.3516815,0 68.6345382,15.36973 68.6345382,34.3285714 L68.6345382,34.3285714 Z" id="Stroke-3" stroke="#1079F6" stroke-width="2.37160002" stroke-linecap="round" stroke-linejoin="round"></path>
                                        <path d="M40.3852652,15.38867 L40.3852652,9.46995074 L28.6147348,9.46995074 L28.6147348,15.38867 C28.6147348,24.1258833 27.0598477,32.5849167 24.8199158,40.2472906 L44.1800842,40.2472906 C41.9401523,32.5849167 40.3852652,24.1258833 40.3852652,15.38867" id="Fill-4" fill="#FFFFFF" fill-rule="nonzero"></path>
                                        <path d="M40.3852652,15.38867 L40.3852652,9.46995074 L28.6147348,9.46995074 L28.6147348,15.38867 C28.6147348,24.1258833 27.0598477,32.5849167 24.8199158,40.2472906 L44.1800842,40.2472906 C41.9401523,32.5849167 40.3852652,24.1258833 40.3852652,15.38867 L40.3852652,15.38867 Z" id="Stroke-5" stroke="#1079F6" stroke-width="2.37160002" stroke-linecap="round" stroke-linejoin="round"></path>
                                        <path d="M45.6822393,44.982266 L23.3182315,44.982266 C20.9464697,51.9308424 18.1191883,58.0519818 15.5791078,62.8994152 C20.9947288,66.5346913 27.500301,68.6571429 34.5002354,68.6571429 C41.5001698,68.6571429 48.005742,66.5346913 53.421363,62.8994152 C50.8812826,58.0519818 48.0540012,51.9308424 45.6822393,44.982266" id="Fill-6" fill="#FFFFFF" fill-rule="nonzero"></path>
                                        <path d="M45.6822393,44.982266 L23.3182315,44.982266 C20.9464697,51.9308424 18.1191883,58.0519818 15.5791078,62.8994128 C20.9947288,66.5346901 27.500301,68.6571429 34.5002354,68.6571429 C41.5001698,68.6571429 48.005742,66.5346901 53.421363,62.8994128 C50.8812826,58.0519818 48.0540012,51.9308424 45.6822393,44.982266 L45.6822393,44.982266 Z" id="Stroke-7" stroke="#1079F6" stroke-width="2.37160002" stroke-linecap="round" stroke-linejoin="round"></path>
                                        <path d="M60.6590622,12.2833547 C58.8605251,12.7296262 57.3232939,14.1974685 57.3232939,17.7321276 C57.3232939,18.4660488 56.3816514,18.8412956 55.6530556,18.8412956 L55.2563887,18.8412956 C53.4531435,18.8412956 51.75701,19.9362587 51.1990869,21.6609734 C50.269215,24.5398385 52.4114515,27.2257533 55.1469228,27.2257533 L66.6055341,27.2257533 C67.0351585,27.2257533 67.4518353,27.1488099 67.8543874,27.032803 C66.6632097,21.501168 64.1502015,16.4678892 60.6590622,12.2833547 Z" id="Fill-8" fill="#F84669" fill-rule="nonzero"></path>
                                        <path d="M67.8543874,27.032803 C66.6632097,21.501168 64.1502015,16.4678892 60.6590622,12.2833547 C58.8605251,12.7296262 57.3232939,14.1974685 57.3232939,17.7321276 C57.3232939,18.4660488 56.3816514,18.8412956 55.6530556,18.8412956 L55.2563887,18.8412956 C53.4531435,18.8412956 51.75701,19.9362587 51.1990869,21.6609734 C50.269215,24.5398385 52.4114515,27.2257533 55.1469228,27.2257533 L66.6055341,27.2257533 C67.0351585,27.2257533 67.4518353,27.1488099 67.8543874,27.032803 L67.8543874,27.032803 Z" id="Stroke-9" stroke="#1079F6" stroke-width="2.37160002" stroke-linecap="round" stroke-linejoin="round"></path>
                                        <polygon id="Fill-10" fill="#F84669" fill-rule="nonzero" points="25.0835757 9.46995074 43.9164243 9.46995074 43.9164243 4.73497537 25.0835757 4.73497537"></polygon>
                                        <polygon id="Stroke-11" stroke="#1079F6" stroke-width="2.37160002" stroke-linecap="round" stroke-linejoin="round" points="25.0835757 9.46995074 43.9164243 9.46995074 43.9164243 4.73497537 25.0835757 4.73497537"></polygon>
                                        <polygon id="Fill-12" fill="#F84669" fill-rule="nonzero" points="18.0212574 44.982266 50.9787426 44.982266 50.9787426 40.2472906 18.0212574 40.2472906"></polygon>
                                        <polygon id="Stroke-13" stroke="#1079F6" stroke-width="2.37160002" stroke-linecap="round" stroke-linejoin="round" points="18.0212574 44.982266 50.9787426 44.982266 50.9787426 40.2472906 18.0212574 40.2472906"></polygon>
                                        <path d="M23.3179961,40.2472906 L23.3179961,44.982266" id="Stroke-14" stroke="#1079F6" stroke-width="2.37160002" stroke-linecap="round" stroke-linejoin="round"></path>
                                        <path d="M28.0262083,40.2472906 L28.0262083,44.982266" id="Stroke-15" stroke="#1079F6" stroke-width="2.37160002" stroke-linecap="round" stroke-linejoin="round"></path>
                                        <path d="M32.7344204,40.2472906 L32.7344204,44.982266" id="Stroke-16" stroke="#1079F6" stroke-width="2.37160002" stroke-linecap="round" stroke-linejoin="round"></path>
                                        <path d="M37.4426326,40.2472906 L37.4426326,44.982266" id="Stroke-17" stroke="#1079F6" stroke-width="2.37160002" stroke-linecap="round" stroke-linejoin="round"></path>
                                        <path d="M42.1508448,40.2472906 L42.1508448,44.982266" id="Stroke-18" stroke="#1079F6" stroke-width="2.37160002" stroke-linecap="round" stroke-linejoin="round"></path>
                                        <path d="M46.2705304,40.2472906 L46.2705304,44.982266" id="Stroke-19" stroke="#1079F6" stroke-width="2.37160002" stroke-linecap="round" stroke-linejoin="round"></path>
                                        <path d="M35.0885265,40.2472906 L35.0885265,15.38867" id="Stroke-20" stroke="#1079F6" stroke-width="2.37160002" stroke-linecap="round" stroke-linejoin="round"></path>
                                        <path d="M35.0885265,44.982266 L35.0885265,68.6571429" id="Stroke-21" stroke="#1079F6" stroke-width="2.37160002" stroke-linecap="round" stroke-linejoin="round"></path>
                                        <path d="M35.0885265,68.6571429 L49.724004,53.9384719" id="Stroke-22" stroke="#1079F6" stroke-width="2.37160002" stroke-linejoin="round"></path>
                                        <path d="M35.0885265,68.6571429 L20.4683507,53.9538606" id="Stroke-23" stroke="#1079F6" stroke-width="2.37160002" stroke-linecap="round" stroke-linejoin="round"></path>
                                        <path d="M35.0885265,44.982266 L16.8442044,63.3302956" id="Stroke-24" stroke="#1079F6" stroke-width="2.37160002" stroke-linecap="round" stroke-linejoin="round"></path>
                                        <path d="M35.0885265,44.982266 L54.0096541,62.8994128" id="Stroke-25" stroke="#1079F6" stroke-width="2.37160002" stroke-linejoin="round"></path>
                                        <path d="M38.6196856,40.2472906 L43.3278978,35.5123153" id="Stroke-26" stroke="#1079F6" stroke-width="2.37160002"></path>
                                        <path d="M31.5573674,40.2472906 L26.8491552,35.5123153" id="Stroke-27" stroke="#1079F6" stroke-width="2.37160002" stroke-linecap="round" stroke-linejoin="round"></path>
                                        <path d="M26.8491552,35.5123153 L40.9737917,21.3073892" id="Stroke-28" stroke="#1079F6" stroke-width="2.37160002" stroke-linejoin="round"></path>
                                        <path d="M42.7393713,35.5123153 L28.9878606,21.090764" id="Stroke-29" stroke="#1079F6" stroke-width="2.37160002" stroke-linejoin="round"></path>
                                        <path d="M35.0885265,15.38867 L28.9878606,21.090764" id="Stroke-30" stroke="#1079F6" stroke-width="2.37160002" stroke-linecap="round" stroke-linejoin="round"></path>
                                        <path d="M35.0885265,15.38867 L40.3852652,21.3073892" id="Stroke-31" stroke="#1079F6" stroke-width="2.37160002" stroke-linejoin="round"></path>
                                        <path d="M23.3179961,44.982266 L35.0885265,56.8197044" id="Stroke-32" stroke="#1079F6" stroke-width="2.37160002" stroke-linecap="round" stroke-linejoin="round"></path>
                                        <path d="M35.0885265,56.8197044 L46.8590569,44.982266" id="Stroke-33" stroke="#1079F6" stroke-width="2.37160002" stroke-linecap="round" stroke-linejoin="round"></path>
                                        <path d="M35.0885265,56.8197044 L24.4950492,66.9691241" id="Stroke-34" stroke="#1079F6" stroke-width="2.37160002" stroke-linecap="round" stroke-linejoin="round"></path>
                                        <path d="M35.0885265,56.8197044 L45.3041699,67.0934172" id="Stroke-35" stroke="#1079F6" stroke-width="2.37160002"></path>
                                        <path d="M29.7917878,4.73497537 L39.2082122,4.73497537 L39.2082122,0.33263202 C37.6686268,0.119558128 36.098438,0 34.5,0 C32.901562,0 31.3313732,0.119558128 29.7917878,0.33263202 L29.7917878,4.73497537 Z" id="Fill-36" fill="#F84669" fill-rule="nonzero"></path>
                                        <path d="M29.7917878,4.73497537 L39.2082122,4.73497537 L39.2082122,0.33263202 C37.6686268,0.119558128 36.098438,0 34.5,0 C32.901562,0 31.3313732,0.119558128 29.7917878,0.33263202 L29.7917878,4.73497537 L29.7917878,4.73497537 Z" id="Stroke-37" stroke="#1079F6" stroke-width="2.37160002" stroke-linecap="round" stroke-linejoin="round"></path>
                                        <path d="M35.0885265,15.38867 L40.9737917,9.46995074" id="Stroke-38" stroke="#1079F6" stroke-width="2.37160002" stroke-linecap="round" stroke-linejoin="round"></path>
                                        <path d="M35.0885265,15.38867 L29.2032613,9.46995074" id="Stroke-39" stroke="#1079F6" stroke-width="2.37160002" stroke-linecap="round" stroke-linejoin="round"></path>
                                    </g>
                                </g>
                            </g>
                        </g>
                    </g>
                </g>
                <text id="Blog" font-family="Averta-Bold, Averta" font-size="20" font-weight="bold" letter-spacing="-0.944969535" fill="#F84669">
                    <tspan x="152.669236" y="131">Blog</tspan>
                </text>
            </g>
        </g>
    </g>
</svg>